<?xml version="1.0" encoding="UTF-8" standalone="no"?>
<!-- Created with Inkscape (http://www.inkscape.org/) -->

<svg
   xmlns:dc="http://purl.org/dc/elements/1.1/"
   xmlns:cc="http://creativecommons.org/ns#"
   xmlns:rdf="http://www.w3.org/1999/02/22-rdf-syntax-ns#"
   xmlns:svg="http://www.w3.org/2000/svg"
   xmlns="http://www.w3.org/2000/svg"
   xmlns:sodipodi="http://sodipodi.sourceforge.net/DTD/sodipodi-0.dtd"
   xmlns:inkscape="http://www.inkscape.org/namespaces/inkscape"
   width="2048"
   height="2048"
   id="svg2"
   version="1.1"
   inkscape:version="0.48.4 r9939"
   sodipodi:docname="New document 1">
  <defs
     id="defs4" />
  <sodipodi:namedview
     id="base"
     pagecolor="#ffffff"
     bordercolor="#666666"
     borderopacity="1.0"
     inkscape:pageopacity="0.0"
     inkscape:pageshadow="2"
     inkscape:zoom="0.0875"
     inkscape:cx="99.678852"
     inkscape:cy="505.55795"
     inkscape:document-units="px"
     inkscape:current-layer="layer3"
     showgrid="false"
     inkscape:window-width="1535"
     inkscape:window-height="1176"
     inkscape:window-x="65"
     inkscape:window-y="24"
     inkscape:window-maximized="1" />
  <metadata
     id="metadata7">
    <rdf:RDF>
      <cc:Work
         rdf:about="">
        <dc:format>image/svg+xml</dc:format>
        <dc:type
           rdf:resource="http://purl.org/dc/dcmitype/StillImage" />
        <dc:title></dc:title>
      </cc:Work>
    </rdf:RDF>
  </metadata>
  <g
     inkscape:groupmode="layer"
     id="layer2"
     inkscape:label="background">
    <rect
       style="fill:#2a7fff"
       id="rect3213"
       width="2052.6301"
       height="2056.6707"
       x="4.0406089"
       y="-0.58935875" />
  </g>
  <g
     inkscape:groupmode="layer"
     id="layer3"
     inkscape:label="Layer"
     style="display:inline">
    <path
       style="fill:#d5d5ff;stroke:#000000;stroke-width:25.5;stroke-miterlimit:4;stroke-opacity:1;stroke-dasharray:none"
       id="path3113-4"
       d="m 841.17763,987.3129 c 24.57108,2.11333 70.19661,6.09329 87.4062,7.07845 69.89452,4.00108 167.47697,6.70335 235.08847,8.12825 121.2563,2.5554 180.5715,2.5208 302.5836,3.3592 210.745,0.2536 421.4949,-2.6709 632.1352,-9.32106 14.8561,-0.5579 29.712,-1.11583 44.5681,-1.67374 0,0 -93.5963,67.9764 -93.5963,67.9764 l 0,0 c -13.2531,-0.6078 -26.5061,-1.2155 -39.7592,-1.8233 -200.2848,-7.8457 -400.7087,-11.7764 -601.1388,-13.2071 -223.8338,-0.307 -448.08315,-2.0216 -671.42421,15.1428 0,0 104.13694,-75.6599 104.13694,-75.6599 z"
       inkscape:connector-curvature="0" />
    <path
       style="fill:#d5d5ff;stroke:#000000;stroke-width:25.5;stroke-miterlimit:4;stroke-opacity:1;stroke-dasharray:none;display:inline"
       id="path3113-4-0"
       d="m 875.46339,650.17004 c 24.57108,2.11333 70.19661,6.09329 87.4062,7.07845 69.89451,4.00108 167.47691,6.7033 235.08841,8.12821 121.2564,2.55548 180.5716,2.52088 302.5837,3.35922 210.745,0.2536 421.4948,-2.67091 632.1351,-9.32104 14.8561,-0.5579 29.712,-1.11583 44.5681,-1.67374 0,0 -93.5963,67.97641 -93.5963,67.97641 l 0,0 c -13.2531,-0.6078 -26.5061,-1.2155 -39.7592,-1.8233 -200.2848,-7.8457 -400.7086,-11.7764 -601.1387,-13.2071 -223.8339,-0.307 -448.08319,-2.0216 -671.42425,15.1428 0,0 104.13694,-75.65991 104.13694,-75.65991 z"
       inkscape:connector-curvature="0" />
    <path
       style="fill:#d5d5ff;stroke:#000000;stroke-width:25.5;stroke-miterlimit:4;stroke-opacity:1;stroke-dasharray:none;display:inline"
       id="path3113-4-7"
       d="m 829.74911,1358.7415 c 24.57108,2.1133 70.19661,6.0933 87.4062,7.0784 69.89452,4.0011 167.47689,6.7033 235.08839,8.1282 121.2564,2.5555 180.5716,2.5209 302.5837,3.3593 210.745,0.2536 421.4949,-2.671 632.1352,-9.3211 14.8561,-0.5579 29.712,-1.1158 44.5681,-1.6737 0,0 -93.5963,67.9764 -93.5963,67.9764 l 0,0 c -13.2531,-0.6078 -26.5061,-1.2155 -39.7592,-1.8233 -200.2848,-7.8457 -400.7087,-11.7764 -601.1388,-13.2071 -223.8339,-0.307 -448.08317,-2.0216 -671.42423,15.1428 0,0 104.13694,-75.6599 104.13694,-75.6599 z"
       inkscape:connector-curvature="0" />
  </g>
  <g
     inkscape:label="Layer 1"
     inkscape:groupmode="layer"
     id="layer1"
     transform="translate(0,995.63782)">
    <g
       transform="matrix(11.516232,0,0,11.516232,-490.98829,-8232.3833)"
       id="layer1-0"
       style="fill:#ffffff;stroke-width:2.79605343;stroke-miterlimit:4;stroke-dasharray:none;stroke:#000000;stroke-opacity:1">
      <path
         d="m 36.097,739.31 20,-30 c 16.511,12.907 17.767,19.639 24.949,30.909 36.804,-72.31 74.954,-104.96 128.57,-144.29 -51.91,53.35 -83.23,89.32 -130,198.58 -16.193,-26.29 -27.333,-53.62 -43.523,-55.2 z"
         id="path3157"
         inkscape:connector-curvature="0"
         style="fill:#ffffff;stroke-width:2.79605343;stroke-miterlimit:4;stroke-dasharray:none;stroke:#000000;stroke-opacity:1" />
    </g>
  </g>
</svg>
