<?xml version="1.0" encoding="UTF-8" standalone="no"?>
<!-- Created with Inkscape (http://www.inkscape.org/) -->

<svg
   xmlns:dc="http://purl.org/dc/elements/1.1/"
   xmlns:cc="http://creativecommons.org/ns#"
   xmlns:rdf="http://www.w3.org/1999/02/22-rdf-syntax-ns#"
   xmlns:svg="http://www.w3.org/2000/svg"
   xmlns="http://www.w3.org/2000/svg"
   xmlns:sodipodi="http://sodipodi.sourceforge.net/DTD/sodipodi-0.dtd"
   xmlns:inkscape="http://www.inkscape.org/namespaces/inkscape"
   width="2048"
   height="2048"
   id="svg2"
   version="1.1"
   inkscape:version="0.48.2 r9819"
   sodipodi:docname="logo.fixed.svg">
  <defs
     id="defs4" />
  <sodipodi:namedview
     id="base"
     pagecolor="#ffffff"
     bordercolor="#666666"
     borderopacity="1.0"
     inkscape:pageopacity="0.0"
     inkscape:pageshadow="2"
     inkscape:zoom="0.081640388"
     inkscape:cx="2195.1196"
     inkscape:cy="274.16886"
     inkscape:document-units="px"
     inkscape:current-layer="layer3"
     showgrid="false"
     inkscape:window-width="1451"
     inkscape:window-height="885"
     inkscape:window-x="1592"
     inkscape:window-y="1187"
     inkscape:window-maximized="0"
     showguides="true">
    <inkscape:grid
       type="xygrid"
       id="grid2990" />
  </sodipodi:namedview>
  <metadata
     id="metadata7">
    <rdf:RDF>
      <cc:Work
         rdf:about="">
        <dc:format>image/svg+xml</dc:format>
        <dc:type
           rdf:resource="http://purl.org/dc/dcmitype/StillImage" />
        <dc:title />
      </cc:Work>
    </rdf:RDF>
  </metadata>
  <g
     inkscape:groupmode="layer"
     id="layer2"
     inkscape:label="background">
    <rect
       style="fill:#2a7fff"
       id="rect3213"
       width="4153.7476"
       height="2800.1428"
       x="-771.75653"
       y="-420.81281" />
  </g>
  <g
     inkscape:groupmode="layer"
     id="layer3"
     inkscape:label="Layer"
     style="display:inline">
    <path
       style="fill:#ffffff;stroke:#000000;stroke-width:0;stroke-miterlimit:4;stroke-opacity:1;stroke-dasharray:none"
       id="path3113-4"
       d="m 760.48338,1032.9895 c 20.21767,2.7054 57.75917,7.8003 71.91957,9.0614 57.5106,5.122 137.8034,8.5813 193.43545,10.4053 99.772,3.2713 148.5778,3.2271 248.9718,4.3003 173.4052,0.3246 346.8144,-3.4191 520.1334,-11.9323 12.2238,-0.7141 24.4476,-1.4284 36.6715,-2.1425 0,0 -77.013,87.0193 -77.013,87.0193 l 0,0 c -10.9048,-0.7781 -21.8097,-1.556 -32.7146,-2.3341 -164.7982,-10.0436 -329.711,-15.0754 -494.6289,-16.9069 -184.1749,-0.3931 -368.69165,-2.588 -552.46111,19.3849 0,0 85.68589,-96.8554 85.68589,-96.8554 z"
       inkscape:connector-curvature="0" />
    <path
       style="fill:#ffffff;stroke:#000000;stroke-width:0;stroke-miterlimit:4;stroke-opacity:1;stroke-dasharray:none;display:inline"
       id="path3113-4-0"
       d="m 788.69435,732.25802 c 20.2177,2.70537 57.7592,7.80028 71.9196,9.06143 57.5106,5.12195 137.8033,8.58118 193.43535,10.40527 99.7722,3.27137 148.578,3.22707 248.9719,4.30027 173.4052,0.32465 346.8143,-3.41914 520.1333,-11.93225 12.2239,-0.71419 24.4476,-1.42842 36.6715,-2.14263 0,0 -77.0129,87.01945 -77.0129,87.01945 l 0,0 c -10.9049,-0.77807 -21.8097,-1.55601 -32.7146,-2.33408 -164.7983,-10.04361 -329.711,-15.07546 -494.6289,-16.90696 -184.1749,-0.393 -368.69165,-2.58794 -552.4611,19.38493 0,0 85.68585,-96.85543 85.68585,-96.85543 z"
       inkscape:connector-curvature="0" />
    <path
       style="fill:#ffffff;stroke:#000000;stroke-width:0;stroke-miterlimit:4;stroke-opacity:1;stroke-dasharray:none;display:inline"
       id="path3113-4-7"
       d="m 751.07983,1359.562 c 20.21762,2.7053 57.75912,7.8004 71.91952,9.0615 57.5106,5.1219 137.8033,8.5811 193.43545,10.4052 99.7721,3.2714 148.5778,3.2271 248.9718,4.3004 173.4051,0.3247 346.8144,-3.4193 520.1333,-11.9323 12.2239,-0.7142 24.4477,-1.4284 36.6716,-2.1426 0,0 -77.013,87.0194 -77.013,87.0194 l 0,0 c -10.9048,-0.778 -21.8096,-1.556 -32.7145,-2.3341 -164.7984,-10.0436 -329.7112,-15.0755 -494.6289,-16.9069 -184.1751,-0.393 -368.69175,-2.588 -552.46122,19.3849 0,0 85.68595,-96.8555 85.68595,-96.8555 z"
       inkscape:connector-curvature="0" />
  </g>
  <g
     inkscape:label="Layer 1"
     inkscape:groupmode="layer"
     id="layer1"
     transform="translate(0,995.63782)">
    <g
       transform="matrix(6.4304268,0,0,6.4304268,-86.355039,-4571.7749)"
       id="layer1-0"
       style="fill:#ffffff;stroke:#000000;stroke-width:2.79605341;stroke-miterlimit:4;stroke-opacity:1;stroke-dasharray:none">
      <path
         d="m 36.097,739.31 20,-30 c 16.511,12.907 17.767,19.639 24.949,30.909 36.804,-72.31 74.954,-104.96 128.57,-144.29 -51.91,53.35 -83.23,89.32 -130,198.58 -16.193,-26.29 -27.333,-53.62 -43.523,-55.2 z"
         id="path3157"
         inkscape:connector-curvature="0"
         style="fill:#ffffff;stroke:#000000;stroke-width:2.79605341;stroke-miterlimit:4;stroke-opacity:1;stroke-dasharray:none" />
    </g>
  </g>
</svg>
