<?xml version="1.0" encoding="UTF-8" standalone="no"?>
<!-- Created with Inkscape (http://www.inkscape.org/) -->

<svg
   xmlns:dc="http://purl.org/dc/elements/1.1/"
   xmlns:cc="http://creativecommons.org/ns#"
   xmlns:rdf="http://www.w3.org/1999/02/22-rdf-syntax-ns#"
   xmlns:svg="http://www.w3.org/2000/svg"
   xmlns="http://www.w3.org/2000/svg"
   xmlns:sodipodi="http://sodipodi.sourceforge.net/DTD/sodipodi-0.dtd"
   xmlns:inkscape="http://www.inkscape.org/namespaces/inkscape"
   width="2048"
   height="2048"
   id="svg2"
   version="1.1"
   inkscape:version="0.48.4 r9939"
   sodipodi:docname="logo.png">
  <defs
     id="defs4" />
  <sodipodi:namedview
     id="base"
     pagecolor="#ffffff"
     bordercolor="#666666"
     borderopacity="1.0"
     inkscape:pageopacity="0.0"
     inkscape:pageshadow="2"
     inkscape:zoom="0.030935922"
     inkscape:cx="-7098.9268"
     inkscape:cy="274.16886"
     inkscape:document-units="px"
     inkscape:current-layer="layer3"
     showgrid="false"
     inkscape:window-width="1535"
     inkscape:window-height="1176"
     inkscape:window-x="65"
     inkscape:window-y="24"
     inkscape:window-maximized="1" />
  <metadata
     id="metadata7">
    <rdf:RDF>
      <cc:Work
         rdf:about="">
        <dc:format>image/svg+xml</dc:format>
        <dc:type
           rdf:resource="http://purl.org/dc/dcmitype/StillImage" />
        <dc:title></dc:title>
      </cc:Work>
    </rdf:RDF>
  </metadata>
  <g
     inkscape:groupmode="layer"
     id="layer2"
     inkscape:label="background">
    <rect
       style="fill:#2a7fff"
       id="rect3213"
       width="2052.6301"
       height="2056.6707"
       x="4.0406089"
       y="-0.58935875" />
  </g>
  <g
     inkscape:groupmode="layer"
     id="layer3"
     inkscape:label="Layer"
     style="display:inline">
    <path
       style="fill:#ffffff;stroke:#000000;stroke-width:0;stroke-miterlimit:4;stroke-opacity:1;stroke-dasharray:none"
       id="path3113-4"
       d="m 1025.6121,1017.7255 c 36.2077,4.8451 103.4407,13.9695 128.8005,16.228 102.9956,9.1729 246.7917,15.3683 346.423,18.6349 178.6815,5.8585 266.0875,5.7792 445.8828,7.7013 310.5508,0.5814 621.1088,-6.1233 931.5053,-21.3695 21.8917,-1.279 43.7832,-2.5581 65.6749,-3.8371 0,0 -137.9222,155.8428 -137.9222,155.8428 l 0,0 c -19.5295,-1.3935 -39.059,-2.7867 -58.5885,-4.1802 -295.1368,-17.9869 -590.4786,-26.9985 -885.8295,-30.2785 -329.8383,-0.7039 -660.2888,-4.6348 -989.4009,34.7163 0,0 153.4546,-173.458 153.4546,-173.458 z"
       inkscape:connector-curvature="0" />
    <path
       style="fill:#ffffff;stroke:#000000;stroke-width:0;stroke-miterlimit:4;stroke-opacity:1;stroke-dasharray:none;display:inline"
       id="path3113-4-0"
       d="m 1076.1351,479.14637 c 36.2077,4.84503 103.4407,13.9695 128.8005,16.22808 102.9956,9.17288 246.7916,15.36801 346.4229,18.63476 178.6817,5.8587 266.0877,5.77937 445.883,7.70135 310.5507,0.58141 621.1086,-6.12334 931.5051,-21.36944 21.8917,-1.27903 43.7831,-2.55815 65.6749,-3.83722 0,0 -137.9222,155.84288 -137.9222,155.84288 l 0,0 c -19.5295,-1.39345 -39.0589,-2.78666 -58.5885,-4.18011 -295.1368,-17.98707 -590.4784,-26.99859 -885.8293,-30.27862 -329.8384,-0.70383 -660.2889,-4.63473 -989.401,34.71642 0,0 153.4546,-173.4581 153.4546,-173.4581 z"
       inkscape:connector-curvature="0" />
    <path
       style="fill:#ffffff;stroke:#000000;stroke-width:0;stroke-miterlimit:4;stroke-opacity:1;stroke-dasharray:none;display:inline"
       id="path3113-4-7"
       d="m 1008.7713,1602.5833 c 36.2076,4.8449 103.4407,13.9696 128.8004,16.228 102.9956,9.1729 246.7916,15.3679 346.4229,18.6347 178.6816,5.8587 266.0876,5.7794 445.8829,7.7016 310.5508,0.5814 621.1088,-6.1236 931.5053,-21.3696 21.8917,-1.279 43.7832,-2.5581 65.6749,-3.8371 0,0 -137.9222,155.8428 -137.9222,155.8428 l 0,0 c -19.5295,-1.3933 -39.0589,-2.7867 -58.5885,-4.18 -295.1367,-17.9871 -590.4786,-26.9987 -885.8294,-30.2787 -329.8385,-0.7038 -660.2889,-4.6347 -989.401,34.7165 0,0 153.4547,-173.4582 153.4547,-173.4582 z"
       inkscape:connector-curvature="0" />
  </g>
  <g
     inkscape:label="Layer 1"
     inkscape:groupmode="layer"
     id="layer1"
     transform="translate(0,995.63782)">
    <g
       transform="matrix(11.516232,0,0,11.516232,-490.98829,-8232.3833)"
       id="layer1-0"
       style="fill:#ffffff;stroke-width:2.79605343;stroke-miterlimit:4;stroke-dasharray:none;stroke:#000000;stroke-opacity:1">
      <path
         d="m 36.097,739.31 20,-30 c 16.511,12.907 17.767,19.639 24.949,30.909 36.804,-72.31 74.954,-104.96 128.57,-144.29 -51.91,53.35 -83.23,89.32 -130,198.58 -16.193,-26.29 -27.333,-53.62 -43.523,-55.2 z"
         id="path3157"
         inkscape:connector-curvature="0"
         style="fill:#ffffff;stroke-width:2.79605343;stroke-miterlimit:4;stroke-dasharray:none;stroke:#000000;stroke-opacity:1" />
    </g>
  </g>
</svg>
